PathFileType	4	(X/Y/Z)	C:\Users\Basilio\Documents\Thesis Gigler\squatting_fais\c3dfiles\075\SJ_pre3\markers_experimental.trc
DataRate	CameraRate	NumFrames	NumMarkers	Units	OrigDataRate	OrigDataStartFrame	OrigNumFrames
200.000000	200.000000	4	61	mm	200.000000	832	1664
Frame#	Time	FHD			LBHD			RBHD			C7			T10			CLAV			LSHO			LUUPA			LMUPA			LDUPA			LLEP			LMEP			LRAD			LUL			LRFIN			RSHO			RUPA1			RMUPA			RDUPA			RLEP			RMEP			RRAD			RUL			RUFIN			LASI			RASI			USACR			LSACR			RSACR			LTHI1			LTHI2			LTHI3			LTHI4			LLFC			LMFC			LTIB1			LTIB2			LTIB3			LTIB4			LLMAL			LMMAL			LHEE			LMT1			LMT2			LMT5			RTHI			RTHI2			RTHI3			RTHI4			RLFC			RMFC			RTIB1			RTIB2			RTIB3			RTIB4			RLMAL			RMMAL			RHEE			RMT1			RMT2			RMT5			
		X1	Y1	Z1	X2	Y2	Z2	X3	Y3	Z3	X4	Y4	Z4	X5	Y5	Z5	X6	Y6	Z6	X7	Y7	Z7	X8	Y8	Z8	X9	Y9	Z9	X10	Y10	Z10	X11	Y11	Z11	X12	Y12	Z12	X13	Y13	Z13	X14	Y14	Z14	X15	Y15	Z15	X16	Y16	Z16	X17	Y17	Z17	X18	Y18	Z18	X19	Y19	Z19	X20	Y20	Z20	X21	Y21	Z21	X22	Y22	Z22	X23	Y23	Z23	X24	Y24	Z24	X25	Y25	Z25	X26	Y26	Z26	X27	Y27	Z27	X28	Y28	Z28	X29	Y29	Z29	X30	Y30	Z30	X31	Y31	Z31	X32	Y32	Z32	X33	Y33	Z33	X34	Y34	Z34	X35	Y35	Z35	X36	Y36	Z36	X37	Y37	Z37	X38	Y38	Z38	X39	Y39	Z39	X40	Y40	Z40	X41	Y41	Z41	X42	Y42	Z42	X43	Y43	Z43	X44	Y44	Z44	X45	Y45	Z45	X46	Y46	Z46	X47	Y47	Z47	X48	Y48	Z48	X49	Y49	Z49	X50	Y50	Z50	X51	Y51	Z51	X52	Y52	Z52	X53	Y53	Z53	X54	Y54	Z54	X55	Y55	Z55	X56	Y56	Z56	X57	Y57	Z57	X58	Y58	Z58	X59	Y59	Z59	X60	Y60	Z60	X61	Y61	Z61	

833	4.16	56.29581451416017	1198.409545898438	-899.276550292969	-107.5291366577149	1112.242065429688	-980.1944580078127	-66.65850067138673	1128.954711914063	-823.3171386718752	-180.1606750488282	1048.928955078125	-924.2934570312502	-408.7744140625001	832.3687744140627	-923.8901977539065	-96.02217864990237	916.518981933594	-920.5787353515627	-85.56804656982423	967.2382812500002	-1071.8515625	-184.9405212402344	872.0382080078127	-1251.701782226563	-193.2232055664063	825.7690429687502	-1234.655517578125	-222.0458679199219	823.792419433594	-1288.4677734375	-280.1376647949219	761.6027832031251	-1311.81005859375	-345.8842773437501	821.6736450195315	-1289.3623046875	-439.1689758300782	663.1132812500001	-1141.661865234375	-410.273651123047	599.6429443359376	-1171.2490234375	-405.2848205566407	657.9220581054689	-1089.4609375	-98.64268493652347	970.118591308594	-767.1949462890626	-217.6031799316407	907.817077636719	-596.5446777343751	-229.0283355712891	858.917175292969	-599.5888671875001	-263.6116638183594	875.985534667969	-553.0894165039064	-314.5462341308594	829.6116333007815	-523.7819824218751	-388.2341613769532	868.591979980469	-547.9849243164064	-409.293914794922	632.0033569335939	-661.4024047851564	-440.6609497070314	683.6842651367189	-708.0874633789064	-394.9738769531251	673.0322875976564	-754.6851806640626	-384.520233154297	610.6588745117189	-1031.851196289063	-388.4985351562501	644.7915649414064	-796.5065917968752	-494.2424621582032	750.1354980468751	-923.373474121094	-519.9239501953126	728.6990966796876	-948.9027099609377	-519.4711303710939	732.2647705078126	-892.7517089843752	-369.2743835449219	529.3801269531251	-1137.871215820313	-287.8890075683594	517.2714233398439	-1149.39697265625	-265.7005615234376	554.0231933593751	-1123.796020507813	-256.5192565917969	467.2648925781251	-1159.987426757813	-180.0173797607422	408.0359497070314	-1157.446411132813	-136.4642639160157	401.0643310546876	-1033.72216796875	-147.8199157714844	284.3824157714844	-1113.115356445313	-223.8513946533204	269.4290771484376	-1158.97314453125	-191.0495300292969	250.533432006836	-1137.079711914063	-231.0810089111329	187.2246246337891	-1101.651123046875	-366.9903869628907	91.2181854248047	-1107.953247070313	-325.7294006347657	100.3831253051758	-1026.988525390625	-421.1756591796876	50.39034271240236	-1053.457275390625	-208.6460113525391	52.80955505371095	-1072.114379882813	-216.6421966552735	58.44115447998048	-1120.032470703125	-263.3225097656251	42.19686508178712	-1165.931884765625	-408.6211242675782	555.0412597656251	-700.4421386718751	-343.5081481933594	561.5792846679689	-698.3318481445314	-332.1268005371094	588.4425048828126	-718.4261474609376	-288.4420166015626	500.030731201172	-685.1773681640626	-176.0027160644532	415.8396301269532	-699.5664672851564	-142.0953369140625	411.6275024414064	-817.1479492187502	-161.4950103759766	275.2841796875001	-762.6726074218751	-243.7295989990235	227.2467803955079	-706.9620361328126	-213.0786743164063	210.037094116211	-738.0050659179689	-241.1558837890626	174.5445709228516	-779.3135375976565	-354.3611145019532	89.92435455322267	-743.5326538085939	-314.1734008789063	104.9882354736328	-824.563171386719	-406.8631286621095	50.47614669799806	-800.711608886719	-197.0184020996094	58.85517883300783	-773.558532714844	-205.6000213623047	60.01719665527345	-732.4294433593751	-246.3847351074219	36.22089385986329	-685.0051269531251	
834	4.165	56.34475326538087	1198.531494140625	-899.3681640625002	-107.5127410888672	1112.365234375	-980.2437133789065	-66.48453521728517	1129.11279296875	-823.3380126953127	-180.4170379638672	1049.274169921875	-924.4566040039065	-408.7210388183595	832.552185058594	-923.9645996093752	-95.90914154052736	916.6928710937502	-920.661560058594	-85.44604492187501	967.298767089844	-1071.913818359375	-184.928207397461	872.1102294921877	-1251.8310546875	-193.3641357421876	825.8389282226565	-1234.710327148438	-222.0885467529297	823.8296508789065	-1288.489990234375	-280.1192626953126	761.7450561523439	-1311.84765625	-345.8450622558594	821.7784423828127	-1289.405395507813	-439.186981201172	663.3159179687501	-1141.69189453125	-410.2808837890626	599.8134155273439	-1171.249633789063	-405.338836669922	658.0724487304689	-1089.477416992188	-98.46936798095706	970.138366699219	-767.2888183593751	-217.4042510986329	907.823669433594	-596.5830688476564	-228.8633728027344	858.9125976562502	-599.6634521484376	-263.3971862792969	875.9773559570315	-553.0996093750001	-314.3391723632813	829.6495361328127	-523.8262329101564	-388.0478820800782	868.664489746094	-547.9842529296876	-409.1880187988282	632.1898193359376	-661.4067382812501	-440.6899719238282	683.8530883789064	-708.1040039062501	-394.8923645019532	673.1531372070314	-754.7183837890626	-384.3212890625001	611.0906372070314	-1031.859741210938	-388.5026245117189	645.0360107421876	-796.4959716796877	-494.3143005371095	750.4111938476564	-923.3714599609377	-519.7888793945314	729.0595703125001	-948.9012451171877	-519.3981323242189	732.5910644531251	-892.7669677734377	-369.3097534179688	529.5256958007814	-1137.866821289063	-288.0302429199219	517.3558959960939	-1149.349365234375	-265.7837219238282	554.1647338867189	-1123.82275390625	-256.5439758300782	467.3613586425782	-1159.825805664063	-180.0844421386719	408.0757141113282	-1157.364501953125	-136.5992279052735	401.0766906738282	-1033.659423828125	-147.932846069336	284.4240722656251	-1113.087158203125	-223.9267883300782	269.4340515136719	-1158.9404296875	-191.0685577392578	250.6495208740235	-1137.015991210938	-231.0154266357422	187.2048797607422	-1101.57861328125	-367.9011535644532	91.6335906982422	-1108.020141601563	-325.7363891601563	100.3420944213867	-1026.976806640625	-421.1550292968751	50.36568069458009	-1053.508422851563	-208.6079101562501	52.81289291381837	-1072.053955078125	-216.6262207031251	58.46680068969728	-1120.013305664063	-263.2965698242188	42.17782974243165	-1166.000366210938	-408.5645141601564	555.1918945312501	-700.5772094726564	-343.5040893554688	561.6517333984376	-698.4573364257814	-332.0886230468751	588.6099853515626	-718.5202026367189	-288.4366149902344	500.1637573242189	-685.2427368164064	-176.0461578369141	415.8521118164064	-699.6627807617189	-142.100341796875	411.4474182128907	-817.2906494140627	-161.5049896240235	275.3252563476563	-762.7382812500001	-243.7508697509766	227.2307739257813	-707.0101318359376	-213.1551361083985	210.1319122314454	-738.1622314453126	-241.1824951171876	174.5227508544922	-779.3247680664065	-354.3729553222657	89.86372375488283	-743.5603637695314	-314.1501464843751	104.8832015991211	-824.5301513671877	-406.7737426757814	50.42428970336915	-800.7534790039065	-196.9286193847657	58.98376846313478	-773.4478759765627	-205.6760864257813	59.95823287963869	-732.4636840820314	-246.5180053710938	36.24592590332032	-685.0451660156251	
835	4.17	56.45906829833986	1198.777587890625	-899.436950683594	-107.4510192871094	1112.524047851563	-980.365661621094	-66.68756103515626	1128.801147460938	-823.6385498046877	-180.2912139892578	1049.419311523438	-924.516784667969	-408.6306152343751	832.8768310546877	-924.0026855468752	-95.89979553222658	916.7697753906252	-920.7747192382815	-85.39669799804689	967.4663696289065	-1072.006469726563	-184.8660430908203	872.2290039062502	-1251.928344726563	-193.3896636962891	825.9570922851565	-1234.818603515625	-222.0824127197266	823.9727172851565	-1288.550048828125	-280.0675659179688	761.8983154296876	-1311.784912109375	-345.8839416503907	821.9140625000002	-1289.478881835938	-439.2021789550782	663.5101928710939	-1141.666137695313	-410.4370117187501	599.9957885742189	-1171.275268554688	-405.3751220703126	658.2376098632814	-1089.54248046875	-98.29631805419925	970.2937622070315	-767.3829956054689	-217.0583953857422	907.852966308594	-596.5963745117189	-228.6210327148438	858.9593505859377	-599.6452636718751	-263.1728515625001	875.9710083007815	-553.1665649414064	-314.1153869628907	829.7705078125002	-523.8766479492189	-387.8352966308595	868.8377685546877	-547.8862915039064	-409.1309204101564	632.3707275390626	-661.4816894531251	-440.7179260253907	684.0194091796876	-708.1580810546876	-394.828826904297	673.3593750000001	-754.7268676757814	-384.3295288085939	611.4960327148439	-1031.979125976563	-388.4736328125001	645.2841796875001	-796.6054687500002	-494.370086669922	750.6918334960939	-923.361999511719	-519.7736816406251	729.4590454101564	-948.8353271484377	-519.3767089843751	732.9067382812501	-892.8015136718752	-369.4249267578126	529.7034301757814	-1137.867431640625	-287.9557495117188	517.5053100585939	-1149.347778320313	-265.8307189941407	554.2702026367189	-1123.841552734375	-256.5973510742188	467.4429016113282	-1159.765380859375	-180.3261413574219	408.2015991210939	-1157.349365234375	-136.6907043457032	401.1697387695314	-1033.540405273438	-147.99560546875	284.5388488769532	-1113.071655273438	-223.0753479003907	269.2277832031251	-1158.547241210938	-191.1976928710938	250.6503448486329	-1136.914916992188	-231.0500183105469	187.2679901123047	-1101.567749023438	-367.0929565429688	91.23921203613283	-1107.90673828125	-325.7352294921876	100.3416442871094	-1026.979125976563	-421.1870727539064	50.2933921813965	-1053.530395507813	-208.6479492187501	52.82895660400392	-1072.07373046875	-216.6523742675782	58.49319076538087	-1120.039428710938	-263.4023132324219	42.18237686157227	-1165.951049804688	-408.5408630371095	555.3559570312501	-700.6991577148439	-343.4348754882813	561.7796630859376	-698.6208496093751	-331.9778747558594	588.8227539062501	-718.5755615234376	-288.3751220703126	500.311737060547	-685.3771972656251	-176.1381072998047	415.8341674804689	-699.8670654296876	-142.5686340332032	410.1504821777345	-817.3201293945315	-161.5997619628907	275.2773132324219	-762.9285278320314	-243.7197723388672	227.2550354003907	-707.1394042968751	-213.1614990234376	210.1437683105469	-738.2366943359376	-241.1849060058594	174.4763793945313	-779.445739746094	-354.4052734375001	89.85155487060548	-743.5578002929689	-314.2125244140626	104.89208984375	-824.6116333007815	-406.7835388183595	50.40445709228517	-800.756530761719	-196.9626159667969	58.8512420654297	-773.5074462890627	-205.6490325927735	60.00605773925783	-732.4247436523439	-246.3966064453126	36.24132919311524	-684.9750976562501	
836	4.175	56.51643753051759	1198.963745117188	-899.5190429687502	-107.5401840209961	1112.66064453125	-980.255554199219	-66.56717681884767	1128.935668945313	-823.694763183594	-180.1462097167969	1049.587036132813	-924.5516357421877	-408.5921325683595	833.1600341796877	-924.0126953125002	-95.63745117187501	916.871520996094	-920.8115234375002	-85.32579803466798	967.628356933594	-1072.100830078125	-184.7981719970703	872.3186035156252	-1252.02490234375	-193.3294219970704	826.1156005859377	-1234.893798828125	-222.0791473388672	824.0501098632815	-1288.593627929688	-280.1802368164063	762.0488281250001	-1311.890502929688	-345.9080200195313	822.0837402343752	-1289.4853515625	-439.2851867675782	663.7125244140626	-1141.701171875	-410.4430541992189	600.1577148437501	-1171.241333007813	-405.230194091797	658.3995971679689	-1089.530639648438	-98.08408355712893	970.3583984375002	-767.4951782226564	-216.8820953369141	908.2143554687502	-596.6472778320314	-228.4271240234376	859.0388793945315	-599.6970214843751	-262.8734130859376	875.9671630859377	-553.1396484375001	-313.8663940429688	829.9083251953127	-523.8734741210939	-387.5256347656251	868.9631958007815	-547.8962402343751	-409.013397216797	632.5394897460939	-661.5259399414064	-440.6491088867189	684.1943359375001	-708.1681518554689	-394.7459106445314	673.6351318359376	-754.7577514648439	-384.3611755371095	611.8862304687501	-1032.109252929688	-388.4444885253907	645.5318603515626	-796.7148437500002	-494.2472534179689	751.2545776367189	-923.472839355469	-519.7313842773439	729.8813476562501	-948.8051757812502	-519.3232421875001	733.2536621093751	-892.7880859375002	-369.4783935546876	529.8884277343751	-1137.865112304688	-288.0708618164063	517.6692504882814	-1149.287109375	-265.7869262695313	554.4010009765626	-1123.75244140625	-256.6342773437501	467.5654296875001	-1159.70703125	-180.523193359375	408.2565917968751	-1157.236206054688	-136.8053283691407	401.1042480468751	-1033.455810546875	-147.9834594726563	284.5059814453126	-1112.9375	-223.1374664306641	269.2793579101563	-1158.503540039063	-191.2010345458985	250.7766723632813	-1136.992431640625	-231.203598022461	187.2723693847657	-1101.652587890625	-368.0620117187501	91.66223144531251	-1107.971313476563	-325.7981262207032	100.302474975586	-1026.99560546875	-421.2453002929689	50.24600219726564	-1053.54150390625	-208.6885375976563	52.85627365112306	-1072.095947265625	-216.6345367431641	58.44648361206056	-1120.019287109375	-263.4255676269532	42.21044540405274	-1165.998291015625	-408.400115966797	555.5989990234376	-700.8115234375001	-343.3707885742188	561.8899536132814	-698.7901000976564	-331.9061889648438	589.0260009765626	-718.7039184570314	-288.3172912597657	500.3583374023439	-685.5874023437501	-176.208740234375	415.883514404297	-700.0425415039064	-142.1954956054688	411.0934143066407	-817.6584472656252	-161.6209259033203	275.2897033691407	-762.9859619140626	-243.7529907226563	227.2578430175782	-707.2485351562501	-213.2255096435547	210.0960235595704	-738.3834228515626	-241.2677154541016	174.4932556152344	-779.593688964844	-354.3960266113282	89.86754608154298	-743.5877075195314	-314.2160034179688	104.7858352661133	-824.5657958984377	-406.759490966797	50.37747955322267	-800.7545166015627	-196.9761962890626	58.8263626098633	-773.5369873046877	-205.6642303466797	59.9979934692383	-732.4688720703126	-246.3855743408204	36.22116851806641	-684.9968261718751	
